<svg width="19" height="15" viewBox="0 0 19 15" fill="none" xmlns="http://www.w3.org/2000/svg">
<path d="M9.5 0C7.56717 0 6 1.56567 6 3.49804C6 5.43041 7.56717 6.99609 9.5 6.99609C11.4328 6.99609 13 5.43041 13 3.49804C13 1.56567 11.4328 0 9.5 0Z" fill="black"/>
<path d="M7.5 8.99414C5.56711 8.99414 4 10.5605 4 12.4936V14.9909H15V12.4936C15 10.5605 13.4329 8.99414 11.5 8.99414H7.5Z" fill="black"/>
<path d="M16.5 10H16V15H19V12.5C19 11.1193 17.8807 10 16.5 10Z" fill="black"/>
<path d="M15.5 4C14.1193 4 13 5.11929 13 6.5C13 7.88071 14.1193 9 15.5 9C16.8807 9 18 7.88071 18 6.5C18 5.11929 16.8807 4 15.5 4Z" fill="black"/>
<path d="M9.5 0C11.4328 0 13 1.56567 13 3.49804C13 5.43041 11.4328 6.99609 9.5 6.99609C7.56717 6.99609 6 5.43041 6 3.49804C6 1.56567 7.56717 0 9.5 0Z" fill="black"/>
<path d="M11.5 8.99414C13.4329 8.99414 15 10.5605 15 12.4936V14.9909H4V12.4936C4 10.5605 5.56711 8.99414 7.5 8.99414H11.5Z" fill="black"/>
<path d="M2.5 10H3V15H0V12.5C0 11.1193 1.11929 10 2.5 10Z" fill="black"/>
<path d="M3.5 4C4.88071 4 6 5.11929 6 6.5C6 7.88071 4.88071 9 3.5 9C2.11929 9 1 7.88071 1 6.5C1 5.11929 2.11929 4 3.5 4Z" fill="black"/>
</svg>
